<svg xmlns="http://www.w3.org/2000/svg" xmlns:xlink="http://www.w3.org/1999/xlink" width="500" zoomAndPan="magnify" viewBox="0 0 375 374.999991" height="500" preserveAspectRatio="xMidYMid meet" version="1.0"><defs><clipPath id="id1"><path d="M 202 215 L 224 215 L 224 247.03125 L 202 247.03125 Z M 202 215 " clip-rule="nonzero"/></clipPath><clipPath id="id2"><path d="M 130 82.03125 L 195 82.03125 L 195 237 L 130 237 Z M 130 82.03125 " clip-rule="nonzero"/></clipPath><clipPath id="id3"><path d="M 231.378906 228 L 244.875 228 L 244.875 237 L 231.378906 237 Z M 231.378906 228 " clip-rule="nonzero"/></clipPath><clipPath id="id4"><path d="M 155 82.03125 L 244.875 82.03125 L 244.875 208 L 155 208 Z M 155 82.03125 " clip-rule="nonzero"/></clipPath></defs><g clip-path="url(#id1)"><path fill="#040606" d="M 213.082031 234.097656 L 223.664062 247.03125 L 223.664062 215.859375 L 202.5 215.859375 L 202.5 247.03125 L 213.082031 234.097656 " fill-opacity="1" fill-rule="nonzero"/></g><g clip-path="url(#id2)"><path fill="#040606" d="M 138.441406 219.933594 C 138.441406 212.332031 143.402344 209.429688 147.222656 208.316406 L 147.222656 82.488281 C 139.800781 83.9375 130.199219 89.238281 130.199219 102.597656 L 130.199219 219.933594 C 130.199219 220.605469 130.492188 236.425781 156.078125 236.425781 L 194.257812 236.425781 L 194.257812 228.164062 L 156.078125 228.164062 C 139.097656 228.164062 138.46875 220.167969 138.441406 219.933594 " fill-opacity="1" fill-rule="nonzero"/></g><g clip-path="url(#id3)"><path fill="#040606" d="M 240.734375 228.164062 L 231.921875 228.164062 L 231.921875 236.425781 L 240.734375 236.425781 C 243.003906 236.425781 244.863281 234.566406 244.863281 232.296875 C 244.847656 230.027344 243.003906 228.164062 240.734375 228.164062 " fill-opacity="1" fill-rule="nonzero"/></g><g clip-path="url(#id4)"><path fill="#040606" d="M 225.832031 135.265625 L 174.480469 135.265625 L 174.480469 108.722656 L 225.832031 108.722656 Z M 225.832031 155.128906 L 183.511719 155.128906 L 183.511719 146.882812 L 225.832031 146.882812 Z M 225.832031 171.726562 L 198.792969 171.726562 L 198.792969 163.476562 L 225.832031 163.476562 Z M 240.734375 82.03125 L 155.464844 82.03125 L 155.464844 207.613281 L 240.734375 207.613281 C 243.003906 207.613281 244.847656 205.753906 244.847656 203.484375 L 244.847656 86.148438 C 244.847656 83.863281 243.003906 82.03125 240.734375 82.03125 " fill-opacity="1" fill-rule="nonzero"/></g></svg>