<svg xmlns="http://www.w3.org/2000/svg" xmlns:xlink="http://www.w3.org/1999/xlink" width="500" zoomAndPan="magnify" viewBox="0 0 375 374.999991" height="500" preserveAspectRatio="xMidYMid meet" version="1.0"><defs><clipPath id="id1"><path d="M 94.191406 87.378906 L 253 87.378906 L 253 256 L 94.191406 256 Z M 94.191406 87.378906 " clip-rule="nonzero"/></clipPath><clipPath id="id2"><path d="M 118 87.378906 L 123 87.378906 L 123 237 L 118 237 Z M 118 87.378906 " clip-rule="nonzero"/></clipPath><clipPath id="id3"><path d="M 94.191406 232 L 253 232 L 253 277 L 94.191406 277 Z M 94.191406 232 " clip-rule="nonzero"/></clipPath><clipPath id="id4"><path d="M 124 252 L 164.351562 252 L 164.351562 301.117188 L 124 301.117188 Z M 124 252 " clip-rule="nonzero"/></clipPath><clipPath id="id5"><path d="M 261.40625 220.398438 L 316.023438 220.398438 L 316.023438 292.769531 L 261.40625 292.769531 Z M 261.40625 220.398438 " clip-rule="nonzero"/></clipPath></defs><g clip-path="url(#id1)"><path fill="#000000" d="M 94.394531 253.953125 C 94.394531 255.023438 95.261719 255.886719 96.332031 255.886719 C 97.402344 255.886719 98.269531 255.023438 98.269531 253.953125 L 98.25 113.054688 L 98.257812 113.054688 C 98.257812 107.0625 100.71875 101.613281 104.675781 97.664062 C 108.640625 93.707031 114.101562 91.25 120.101562 91.25 L 120.101562 91.257812 L 246.054688 91.257812 C 246.671875 91.257812 247.234375 91.511719 247.644531 91.921875 C 248.054688 92.332031 248.308594 92.890625 248.308594 93.507812 L 248.308594 113.257812 C 248.308594 114.328125 249.175781 115.199219 250.25 115.199219 C 251.328125 115.199219 252.195312 114.328125 252.195312 113.257812 L 252.195312 93.507812 C 252.195312 91.820312 251.507812 90.289062 250.394531 89.175781 C 249.28125 88.066406 247.746094 87.378906 246.054688 87.378906 L 120.101562 87.378906 L 120.101562 87.386719 C 113.019531 87.386719 106.585938 90.273438 101.925781 94.921875 C 97.265625 99.574219 94.371094 105.992188 94.371094 113.054688 L 94.378906 113.054688 Z M 252.195312 210.835938 L 252.195312 234.53125 C 252.195312 235.601562 251.328125 236.472656 250.25 236.472656 C 249.175781 236.472656 248.308594 235.601562 248.308594 234.53125 L 248.308594 210.835938 C 248.308594 209.765625 249.175781 208.894531 250.25 208.894531 C 251.328125 208.894531 252.195312 209.765625 252.195312 210.835938 " fill-opacity="1" fill-rule="nonzero"/></g><g clip-path="url(#id2)"><path fill="#000000" d="M 122.050781 89.316406 C 122.050781 88.246094 121.179688 87.378906 120.105469 87.378906 C 119.03125 87.378906 118.160156 88.246094 118.160156 89.316406 L 118.160156 234.53125 C 118.160156 235.601562 119.03125 236.472656 120.105469 236.472656 C 121.179688 236.472656 122.050781 235.601562 122.050781 234.53125 L 122.050781 89.316406 " fill-opacity="1" fill-rule="nonzero"/></g><g clip-path="url(#id3)"><path fill="#000000" d="M 250.25 276.964844 C 251.328125 276.964844 252.195312 276.09375 252.195312 275.023438 C 252.195312 273.949219 251.328125 273.082031 250.25 273.082031 L 162.367188 273.082031 C 161.292969 273.082031 160.425781 273.949219 160.425781 275.023438 C 160.425781 276.09375 161.292969 276.964844 162.367188 276.964844 Z M 125.984375 276.964844 L 116.605469 276.964844 C 110.488281 276.964844 104.929688 274.46875 100.902344 270.445312 C 96.871094 266.425781 94.371094 260.882812 94.371094 254.777344 C 94.371094 248.671875 96.871094 243.125 100.902344 239.105469 C 104.929688 235.085938 110.488281 232.589844 116.605469 232.589844 L 250.25 232.589844 C 251.328125 232.589844 252.195312 233.460938 252.195312 234.53125 C 252.195312 235.601562 251.328125 236.472656 250.25 236.472656 L 116.605469 236.472656 C 111.5625 236.472656 106.976562 238.53125 103.652344 241.851562 C 100.324219 245.167969 98.257812 249.746094 98.257812 254.777344 C 98.257812 259.808594 100.324219 264.386719 103.652344 267.703125 C 106.976562 271.023438 111.5625 273.082031 116.605469 273.082031 L 125.984375 273.082031 C 127.054688 273.082031 127.925781 273.949219 127.925781 275.023438 C 127.925781 276.09375 127.054688 276.964844 125.984375 276.964844 " fill-opacity="1" fill-rule="nonzero"/></g><path fill="#000000" d="M 117.308594 252.140625 C 116.234375 252.140625 115.363281 253.007812 115.363281 254.078125 C 115.363281 255.148438 116.234375 256.019531 117.308594 256.019531 L 234.859375 256.019531 C 235.933594 256.019531 236.800781 255.148438 236.800781 254.078125 C 236.800781 253.007812 235.933594 252.140625 234.859375 252.140625 L 117.308594 252.140625 " fill-opacity="1" fill-rule="nonzero"/><path fill="#000000" d="M 248.601562 276.046875 C 249.167969 276.953125 250.367188 277.230469 251.277344 276.667969 C 252.1875 276.101562 252.464844 274.910156 251.902344 274 C 247.53125 267.015625 244.511719 260.875 244.105469 254.808594 C 243.703125 248.855469 245.839844 242.792969 251.738281 235.773438 C 252.429688 234.953125 252.320312 233.730469 251.5 233.046875 C 250.675781 232.359375 249.449219 232.46875 248.765625 233.289062 C 242.148438 241.15625 239.761719 248.113281 240.230469 255.066406 C 240.691406 261.910156 243.929688 268.570312 248.601562 276.046875 " fill-opacity="1" fill-rule="nonzero"/><g clip-path="url(#id4)"><path fill="#000000" d="M 164.3125 254.078125 C 164.3125 253.007812 163.441406 252.140625 162.367188 252.140625 C 161.292969 252.140625 160.425781 253.007812 160.425781 254.078125 L 160.425781 293.980469 L 145.679688 276.96875 L 145.683594 276.964844 C 144.984375 276.15625 143.753906 276.066406 142.945312 276.769531 C 142.832031 276.863281 142.734375 276.96875 142.648438 277.082031 L 127.929688 293.996094 L 127.929688 254.078125 C 127.929688 253.007812 127.054688 252.140625 125.984375 252.140625 C 124.910156 252.140625 124.039062 253.007812 124.039062 254.078125 L 124.039062 299.179688 C 124.039062 299.71875 124.265625 300.261719 124.707031 300.644531 C 125.519531 301.34375 126.746094 301.257812 127.453125 300.449219 L 125.984375 299.179688 L 127.449219 300.441406 L 144.210938 281.1875 L 160.804688 300.328125 C 161.15625 300.808594 161.726562 301.117188 162.367188 301.117188 C 163.441406 301.117188 164.3125 300.25 164.3125 299.179688 L 164.3125 254.078125 " fill-opacity="1" fill-rule="nonzero"/></g><path fill="#000000" d="M 207.34375 116.914062 C 219.835938 109.246094 234.257812 107.351562 247.476562 110.496094 C 260.699219 113.636719 272.722656 121.808594 280.40625 134.273438 C 288.09375 146.734375 289.988281 161.125 286.839844 174.3125 C 283.691406 187.507812 275.5 199.5 263.007812 207.171875 C 250.519531 214.839844 236.097656 216.730469 222.878906 213.589844 C 209.652344 210.445312 197.632812 202.273438 189.945312 189.808594 C 182.257812 177.347656 180.363281 162.960938 183.511719 149.769531 C 186.660156 136.578125 194.855469 124.582031 207.34375 116.914062 Z M 246.578125 114.265625 C 234.324219 111.355469 220.957031 113.109375 209.378906 120.214844 C 197.804688 127.324219 190.214844 138.4375 187.292969 150.664062 C 184.375 162.890625 186.132812 176.230469 193.257812 187.777344 C 200.378906 199.328125 211.519531 206.902344 223.773438 209.816406 C 236.027344 212.726562 249.398438 210.972656 260.972656 203.867188 C 272.546875 196.761719 280.140625 185.644531 283.058594 173.417969 C 285.976562 161.191406 284.21875 147.851562 277.097656 136.300781 C 269.972656 124.753906 258.832031 117.179688 246.578125 114.265625 " fill-opacity="1" fill-rule="nonzero"/><path fill="#000000" d="M 213.632812 127.105469 C 223.300781 121.171875 234.464844 119.707031 244.695312 122.140625 C 254.933594 124.570312 264.242188 130.898438 270.1875 140.546875 C 276.140625 150.191406 277.605469 161.332031 275.167969 171.539062 C 272.734375 181.753906 266.390625 191.039062 256.71875 196.976562 C 247.050781 202.910156 235.890625 204.375 225.65625 201.945312 C 215.417969 199.511719 206.113281 193.183594 200.160156 183.535156 C 194.214844 173.890625 192.746094 162.753906 195.183594 152.542969 C 197.621094 142.328125 203.964844 133.042969 213.632812 127.105469 Z M 243.800781 125.910156 C 234.53125 123.710938 224.421875 125.035156 215.667969 130.410156 C 206.914062 135.785156 201.171875 144.191406 198.964844 153.4375 C 196.757812 162.683594 198.085938 172.773438 203.472656 181.507812 C 208.863281 190.238281 217.285156 195.96875 226.550781 198.171875 C 235.820312 200.375 245.929688 199.046875 254.683594 193.671875 C 263.4375 188.296875 269.179688 179.890625 271.386719 170.644531 C 273.59375 161.398438 272.265625 151.3125 266.878906 142.578125 C 261.492188 133.84375 253.066406 128.113281 243.800781 125.910156 " fill-opacity="1" fill-rule="nonzero"/><path fill="#000000" d="M 267.277344 202.121094 C 266.742188 201.195312 265.554688 200.878906 264.628906 201.414062 C 263.699219 201.949219 263.382812 203.132812 263.921875 204.058594 L 276.6875 226.121094 C 277.222656 227.042969 278.410156 227.359375 279.335938 226.824219 C 280.265625 226.289062 280.582031 225.105469 280.042969 224.183594 Z M 266.679688 231.875 L 253.917969 209.816406 C 253.382812 208.890625 253.703125 207.710938 254.628906 207.179688 C 255.558594 206.648438 256.738281 206.96875 257.273438 207.894531 L 270.039062 229.953125 C 270.570312 230.878906 270.25 232.058594 269.324219 232.589844 C 268.398438 233.121094 267.214844 232.800781 266.679688 231.875 " fill-opacity="1" fill-rule="nonzero"/><g clip-path="url(#id5)"><path fill="#000000" d="M 262.953125 231.792969 L 281.945312 220.851562 L 281.945312 220.847656 C 282.875 220.3125 284.0625 220.628906 284.601562 221.558594 C 284.625 221.597656 284.644531 221.636719 284.664062 221.675781 L 314.289062 272.871094 L 314.292969 272.871094 C 314.328125 272.929688 314.359375 272.988281 314.386719 273.050781 C 316.085938 276.09375 316.417969 279.550781 315.574219 282.691406 C 314.726562 285.847656 312.695312 288.691406 309.671875 290.476562 C 309.574219 290.546875 309.472656 290.605469 309.363281 290.652344 C 306.3125 292.347656 302.847656 292.679688 299.703125 291.839844 C 296.492188 290.980469 293.605469 288.902344 291.820312 285.820312 L 262.128906 234.507812 L 262.125 234.507812 C 261.585938 233.578125 261.90625 232.390625 262.835938 231.855469 C 262.875 231.835938 262.914062 231.816406 262.953125 231.792969 Z M 282.207031 225.171875 L 266.457031 234.246094 L 295.179688 283.878906 C 296.425781 286.039062 298.449219 287.492188 300.703125 288.09375 C 302.910156 288.683594 305.332031 288.460938 307.460938 287.285156 C 307.503906 287.253906 307.550781 287.226562 307.597656 287.199219 L 307.601562 287.203125 C 309.765625 285.957031 311.222656 283.9375 311.824219 281.691406 C 312.414062 279.488281 312.191406 277.070312 311.011719 274.949219 C 310.984375 274.90625 310.953125 274.859375 310.925781 274.8125 L 310.929688 274.808594 L 282.207031 225.171875 " fill-opacity="1" fill-rule="nonzero"/></g></svg>