<svg width="115" height="165" xmlns="http://www.w3.org/2000/svg" version="1.0" preserveAspectRatio="xMidYMid meet" zoomAndPan="magnify">
 <g id="Layer_1">
  <title>Layer 1</title>
  <g id="svg_5" clip-path="url(#id1)">
   <path id="svg_1" fill-rule="nonzero" d="m82.88281,152.06641l10.58203,12.93359l0,-31.17187l-21.16406,0l0,31.17187l10.58203,-12.93359" fill="#040606"/>
  </g>
  <g id="svg_7" clip-path="url(#id2)">
   <path id="svg_3" fill-rule="nonzero" d="m8.24219,137.90234c0,-7.60156 4.96093,-10.5039 8.78125,-11.61718l0,-125.82813c-7.42188,1.44922 -17.02344,6.75 -17.02344,20.10938l0,117.33593c0,0.67188 0.29297,16.49219 25.87891,16.49219l38.17968,0l0,-8.26172l-38.17968,0c-16.98047,0 -17.60938,-7.99609 -17.63672,-8.23047" fill="#040606"/>
  </g>
  <g id="svg_9" clip-path="url(#id3)">
   <path id="svg_6" fill-rule="nonzero" d="m110.53516,146.13281l-8.8125,0l0,8.26172l8.8125,0c2.26953,0 4.1289,-1.85937 4.1289,-4.1289c-0.01562,-2.26954 -1.85937,-4.13282 -4.1289,-4.13282" fill="#040606"/>
  </g>
  <g id="svg_11" clip-path="url(#id4)">
   <path id="svg_10" fill-rule="nonzero" d="m95.63281,53.23438l-51.35156,0l0,-26.54297l51.35156,0l0,26.54297zm0,19.86328l-42.32031,0l0,-8.2461l42.32031,0l0,8.2461zm0,16.59765l-27.03906,0l0,-8.25l27.03906,0l0,8.25zm14.90235,-89.69531l-85.26954,0l0,125.58203l85.26954,0c2.26953,0 4.11328,-1.85937 4.11328,-4.1289l0,-117.33594c0,-2.28516 -1.84375,-4.11719 -4.11328,-4.11719" fill="#040606"/>
  </g>
 </g>
</svg>